<?xml version="1.0" standalone="no"?>
<!DOCTYPE svg PUBLIC "-//W3C//DTD SVG 20010904//EN"
 "http://www.w3.org/TR/2001/REC-SVG-20010904/DTD/svg10.dtd">
<svg version="1.0" xmlns="http://www.w3.org/2000/svg"
 width="400.000000pt" height="400.000000pt" viewBox="0 0 400.000000 400.000000"
 preserveAspectRatio="xMidYMid meet">

<g transform="translate(0.000000,400.000000) scale(0.100000,-0.100000)"
fill="#000000" stroke="none">
<path d="M42 3419 l3 -31 81 -3 c47 -2 94 -10 111 -18 62 -32 58 52 58 -1361
0 -1271 0 -1292 -20 -1331 -32 -63 -74 -85 -161 -85 l-74 0 0 -35 0 -35 854 0
854 0 6 73 c3 39 10 221 16 402 5 182 13 372 16 423 l6 92 -45 0 -44 0 -7 -97
c-33 -484 -187 -736 -489 -799 -50 -11 -114 -15 -212 -12 -154 3 -186 14 -205
64 -6 15 -10 296 -10 701 l0 675 138 -4 c130 -3 140 -5 190 -32 29 -17 67 -46
84 -65 68 -77 107 -216 108 -383 l0 -88 40 0 40 0 -2 608 -3 607 -29 3 c-16 2
-33 -1 -38 -6 -5 -5 -14 -72 -19 -148 -4 -77 -14 -162 -22 -190 -29 -109 -90
-177 -183 -203 -21 -6 -99 -11 -171 -11 l-133 0 0 543 c0 342 4 556 10 579 28
98 108 135 275 125 303 -18 473 -150 546 -424 16 -60 23 -119 26 -255 l5 -178
38 0 37 0 6 293 c4 160 7 370 7 465 l0 172 -846 0 -845 0 3 -31z"/>
<path d="M1920 3418 l0 -33 72 -2 c90 -3 136 -25 163 -79 20 -38 20 -62 23
-1268 1 -784 -1 -1249 -8 -1283 -23 -126 -63 -163 -177 -163 l-73 0 0 -35 0
-35 475 0 475 0 0 34 0 33 -59 7 c-73 8 -122 39 -138 86 -9 26 -12 212 -12
698 l-1 662 285 0 286 0 -3 -642 c-4 -711 -4 -712 -68 -773 -25 -24 -41 -30
-90 -33 l-60 -4 0 -34 0 -34 475 0 475 0 0 34 0 33 -72 5 c-96 6 -134 27 -161
86 l-22 47 -3 1205 c-2 663 0 1238 3 1277 11 122 53 162 180 172 l70 6 3 33 3
32 -475 0 -476 0 0 -35 c0 -35 1 -35 43 -35 63 0 128 -36 152 -85 19 -38 20
-63 23 -592 l3 -553 -286 0 -285 0 0 553 c0 521 2 554 19 594 23 49 62 73 136
82 48 6 50 8 53 39 l3 32 -475 0 -476 0 0 -32z"/>
</g>
</svg>
